<?xml version="1.0" encoding="UTF-8" standalone="no"?>
<svg width="350" height="350" viewBox="0 0 350 350" fill="none" xmlns="http://www.w3.org/2000/svg">
  <rect width="350" height="350" fill="#F3F4F6"/>
  <path d="M175 175m-80 0a80 80 0 1 0 160 0a80 80 0 1 0 -160 0" fill="#E5E7EB"/>
  <path d="M175 135C162.85 135 153 144.85 153 157C153 169.15 162.85 179 175 179C187.15 179 197 169.15 197 157C197 144.85 187.15 135 175 135ZM175 173C166.16 173 159 165.84 159 157C159 148.16 166.16 141 175 141C183.84 141 191 148.16 191 157C191 165.84 183.84 173 175 173Z" fill="#9CA3AF"/>
  <path d="M175 185C154.65 185 135 195.15 135 215V221H215V215C215 195.15 195.35 185 175 185ZM209 215H141C141 198.4 158.4 191 175 191C191.6 191 209 198.4 209 215Z" fill="#9CA3AF"/>
</svg>
