<?xml version="1.0" encoding="UTF-8"?>
<!DOCTYPE svg PUBLIC "-//W3C//DTD SVG 1.1//EN" "http://www.w3.org/Graphics/SVG/1.1/DTD/svg11.dtd">
<!-- Creator: CorelDRAW -->
<svg xmlns="http://www.w3.org/2000/svg" xml:space="preserve" width="8.26772in" height="11.6929in" version="1.1" style="shape-rendering:geometricPrecision; text-rendering:geometricPrecision; image-rendering:optimizeQuality; fill-rule:evenodd; clip-rule:evenodd"
viewBox="0 0 1595.48 1558.76"
 xmlns:xlink="http://www.w3.org/1999/xlink"
 xmlns:xodm="http://www.corel.com/coreldraw/odm/2003">
 <defs>
  <style type="text/css">
   <![CDATA[
    .fil0 {fill:white}
   ]]>
  </style>
 </defs>
 <g id="Layer_x0020_1">
  <metadata id="CorelCorpID_0Corel-Layer"/>
  <path class="fil0" d="M1259 1476.33l0 7.49 -3.37 0 0 -7.49 3.37 0zm0 0l0 -14.99 3.37 0 0 -7.5 3 0 0 -7.49 3.37 0 0 -14.99 3.37 0 0 -7.5 3.37 0 0 -7.49 3.37 0 0 -7.49 3.37 0 0 -7.5 3.37 0 0 -7.5 3.37 0 0 -7.49 3.37 0 0 -7.49 3 0 0 -7.5 3.37 0 0 -7.5 3.37 0 0 -7.49 3.37 0 0 -7.49 3.37 0 0 -7.5 3.37 0 0 -7.5 3.37 0 0 -7.49 3.37 0 0 -7.49 6.37 0 0 -7.5 3.37 0 0 -7.5 3.37 0 0 -7.49 6.75 0 0 -7.5 3.37 0 0 -7.49 3.37 0 0 -7.5 6.75 0 0 -7.49 3 0 0 -7.5 6.74 0 0 -7.49 3.37 0 0 -7.5 6.75 0 0 14.99 -3.37 0 0 7.5 -3.37 0 0 14.99 -3.37 0 0 7.49 -3.37 0 0 7.5 -3.37 0 0 7.49 -3 0 0 7.5 -3.37 0 0 7.5 -3.37 0 0 14.98 -3.37 0 0 7.5 -3.37 0 0 7.5 -3.37 0 0 7.49 -3.37 0 0 7.49 -3.37 0 0 7.5 -6.37 0 0 7.5 -3.37 0 0 7.49 -3.37 0 0 7.49 -3.37 0 0 7.5 -3.37 0 0 7.5 -3.37 0 0 7.49 -3.37 0 0 7.49 -6.75 0 0 7.5 -3 0 0 7.5 -3.37 0 0 7.49 -6.74 0 0 7.49 -3.37 0 0 7.5 -6.75 0 0 7.5 -6.75 0 0 7.49 -6.37 0zm113.16 -232.32l0 -7.49 3.37 0 0 7.49 -3.37 0zm-922.52 -7.49l-3.37 0 0 7.49 -3.37 0 0 7.5 -3.37 0 0 7.49 -3.37 0 0 7.5 -3.37 0 0 7.49 -3.37 0 0 7.5 -3.37 0 0 7.49 -3 0 0 7.5 -3.37 0 0 7.49 -6.74 0 0 7.5 -3.37 0 0 7.5 -6.74 0 0 7.49 -3.37 0 0 7.49 -6.37 0 0 7.5 -6.75 0 0 7.5 -6.74 0 0 7.49 -6.75 0 0 7.49 -6.75 0 0 7.5 -9.74 0 0 7.5 -6.74 0 0 7.49 -10.12 0 0 7.49 -6.37 0 0 7.5 -10.12 0 0 7.5 -10.11 0 0 7.49 -9.74 0 0 7.49 -13.49 0 0 7.5 -13.11 0 0 7.5 -16.86 0 0 7.49 -19.86 0 0 7.49 -29.98 0 0 7.5 -20.23 0 0 -7.5 -16.49 0 0 -7.49 -6.75 0 0 -7.49 3.37 0 0 -7.5 3.37 0 0 -7.5 3.37 0 0 -7.49 10.12 0 0 -7.49 6.37 0 0 -7.5 6.74 0 0 -7.5 6.75 0 0 -7.49 10.12 0 0 -7.49 6.37 0 0 -7.5 6.74 0 0 -7.5 10.12 0 0 -7.49 6.75 0 0 -7.49 9.74 0 0 -7.5 10.12 0 0 -7.5 10.12 0 0 -7.49 9.74 0 0 -7.49 10.12 0 0 -7.5 10.12 0 0 -7.5 13.11 0 0 -7.49 10.12 0 0 -7.5 9.74 0 0 -7.49 10.12 0 0 -7.5 13.49 0 0 -7.49 9.74 0 0 -7.5 10.12 0 0 -7.49 10.12 0 0 -7.5 13.11 0 0 -7.49 10.12 0 0 -7.5 9.74 0 0 -7.49 10.12 0 0 -7.49 13.49 0 0 -7.5 3.37 0 0 14.99 -3.37 0 0 14.99zm199.72 -179.86l-3.37 0 0 14.99 -3.37 0 0 7.49 -3.37 0 0 7.5 -6.37 0 0 7.49 -10.12 0 0 7.5 -3.37 0 0 -14.99 3.37 0 0 -14.99 3.37 0 0 -14.99 3.37 0 0 -7.5 3.37 0 0 -7.49 3.37 0 0 -7.5 3 0 0 -7.49 3.37 0 0 -7.5 6.74 0 0 -7.49 3.37 0 0 29.98 -3.37 0 0 14.99zm482.99 -52.46l-3.37 0 0 7.5 -6.75 0 0 7.49 -6.37 0 0 7.5 -3.37 0 0 7.49 -10.12 0 0 7.5 -10.12 0 0 -7.5 3.37 0 0 -7.49 3.37 0 0 -7.5 3.37 0 0 -7.49 6.75 0 0 -7.5 6.74 0 0 -7.49 13.12 0 0 -7.5 6.74 0 0 7.5 -3.37 0 0 7.49zm-249.93 -224.82l0 7.5 -3.37 0 0 -7.5 3.37 0zm0 0l0 -14.99 3.37 0 0 -7.49 3.37 0 0 -14.99 3.37 0 0 -14.99 3.37 0 0 -7.5 3.37 0 0 -14.99 3.37 0 0 -7.49 3.37 0 0 -14.99 3 0 0 -7.5 3.37 0 0 -14.99 3.37 0 0 -7.49 3.37 0 0 -7.5 3.37 0 0 -14.99 3.37 0 0 -7.49 3.37 0 0 -14.99 3.37 0 0 -7.5 3.37 0 0 -7.49 3 0 0 -14.99 3.37 0 0 -7.5 3.37 0 0 -7.49 3.37 0 0 -7.5 3.37 0 0 -14.99 3.37 0 0 -7.49 3.37 0 0 -7.5 3.37 0 0 -7.49 3.37 0 0 -7.5 3 0 0 -14.99 3.37 0 0 -7.49 3.37 0 0 -7.5 3.37 0 0 -7.49 3.37 0 0 -7.5 3.37 0 0 -7.49 3.37 0 0 14.99 -3.37 0 0 22.48 -3.37 0 0 14.99 -3.37 0 0 14.99 -3.37 0 0 14.99 -3.37 0 0 14.99 -3.37 0 0 7.5 -3 0 0 14.99 -3.37 0 0 7.49 -3.37 0 0 14.99 -3.37 0 0 7.5 -3.37 0 0 7.49 -3.37 0 0 7.5 -3.37 0 0 14.99 -3.37 0 0 7.49 -3.37 0 0 7.5 -3 0 0 7.49 -3.37 0 0 7.5 -3.37 0 0 7.49 -3.37 0 0 7.5 -3.37 0 0 7.49 -3.37 0 0 7.5 -3.37 0 0 14.99 -3.37 0 0 7.49 -3.37 0 0 7.5 -3 0 0 7.49 -3.37 0 0 7.5 -3.37 0 0 7.49 -3.37 0 0 7.5 -3.37 0 0 7.49 -3.37 0 0 7.5 -3.37 0 0 7.49 -3.37 0zm106.79 -322.24l0 -7.5 3.37 0 0 7.5 -3.37 0zm-553.06 -112.41l-6.75 0 0 7.5 -6.37 0 0 14.99 6.37 0 0 -7.5 6.75 0 0 7.5 -3.37 0 0 7.49 -23.23 0 0 7.5 -16.48 0 0 7.49 -20.23 0 0 7.5 -16.49 0 0 7.49 -16.86 0 0 7.5 -13.11 0 0 7.49 -16.86 0 0 7.5 -13.11 0 0 -7.5 10.12 0 0 -14.99 -10.12 0 0 -7.49 10.12 0 0 -7.5 3 0 0 -7.49 -16.49 0 0 -7.5 10.12 0 0 -7.49 6.37 0 0 -14.99 -6.37 0 0 7.49 -10.12 0 0 -59.95 -3.37 0 0 -37.47 3.37 0 0 7.49 3.37 0 0 7.5 3.37 0 0 7.49 3.37 0 0 7.5 3.37 0 0 7.49 3 0 0 7.49 3.37 0 0 7.5 3.37 0 0 7.5 3.37 0 0 7.49 6.75 0 0 -7.49 3.37 0 0 -7.5 3.37 0 0 -14.99 3 0 0 -7.49 3.37 0 0 -7.5 3.37 0 0 -14.99 3.37 0 0 -14.99 3.37 0 0 14.99 3.37 0 0 14.99 3.37 0 0 29.98 3.37 0 0 22.48 3.37 0 0 -7.5 3 0 0 -7.49 3.37 0 0 -7.5 3.37 0 0 -14.99 3.37 0 0 -7.49 3.37 0 0 -14.99 3.37 0 0 -7.5 3.37 0 0 -14.99 3.37 0 0 -7.5 3.37 0 0 14.99 3 0 0 22.48 3.37 0 0 22.48 3.37 0 0 14.99 3.37 0 0 -7.5 3.37 0 0 -7.5 3.37 0 0 -7.49 3.37 0 0 -7.49 3.37 0 0 -7.5 3.37 0 0 -7.49 3 0 0 -7.5 3.37 0 0 -7.49 3.37 0 0 -7.5 3.37 0 0 -7.5 3.37 0 0 44.97 -3.37 0 0 52.46zm-96.67 -74.94l-3.37 0 0 7.5 -3 0 0 14.99 -3.37 0 0 7.49 -3.37 0 0 14.99 -3.37 0 0 -7.5 -3.37 0 0 -7.49 -3.37 0 0 -7.49 3.37 0 0 -14.99 3.37 0 0 -7.5 3.37 0 0 -14.99 3.37 0 0 -14.99 3.37 0 0 -14.99 3 0 0 -7.49 3.37 0 0 14.99 3.37 0 0 22.48 -3.37 0 0 14.99zm50.21 -37.47l-3.37 0 0 14.98 -3.37 0 0 7.5 -3.37 0 0 14.99 -3.37 0 0 7.5 -3.37 0 0 7.49 -3.37 0 0 14.99 -3.37 0 0 7.49 -3 0 0 -14.98 3 0 0 -14.99 3.37 0 0 -7.5 3.37 0 0 -14.99 3.37 0 0 -7.5 3.37 0 0 -14.98 3.37 0 0 -7.5 3.37 0 0 -14.99 3.37 0 0 -7.49 3.37 0 0 -7.5 3 0 0 14.99 3.37 0 0 7.5 3.37 0 0 14.99 3.37 0 0 14.98 3.37 0 0 14.99 3.37 0 0 7.49 3.37 0 0 14.99 -3.37 0 0 7.5 -3.37 0 0 7.49 -3.37 0 0 -14.99 -3.37 0 0 -22.48 -3.37 0 0 -22.48 -3.37 0 0 -14.99 -6.37 0 0 7.5zm-106.79 0l0 67.44 3.37 0 0 67.45 3.37 0 0 59.95 3.37 0 0 7.49 -10.11 0 0 7.5 -13.12 0 0 7.49 -13.49 0 0 7.5 -13.11 0 0 7.49 -13.49 0 0 7.5 -10.12 0 0 7.49 -13.11 0 0 7.5 -13.49 0 0 7.49 -9.74 0 0 7.5 -10.12 0 0 7.49 -10.12 0 0 7.5 -9.74 0 0 7.49 -10.12 0 0 7.5 -10.12 0 0 7.49 -9.74 0 0 7.5 -6.75 0 0 7.49 -6.75 0 0 7.5 -10.12 0 0 7.49 -6.37 0 0 7.5 -6.74 0 0 7.49 -6.75 0 0 7.5 -6.75 0 0 7.49 -6.37 0 0 7.5 -6.75 0 0 7.49 -6.74 0 0 7.5 -6.75 0 0 7.49 -3.37 0 0 7.5 -6.37 0 0 7.49 -3.37 0 0 7.5 -6.74 0 0 7.49 -3.37 0 0 7.5 -3.37 0 0 7.49 -3.37 0 0 7.5 -3.37 0 0 7.49 -3.37 0 0 7.5 -3 0 0 14.99 -3.37 0 0 14.99 -3.37 0 0 52.46 3.37 0 0 14.99 3.37 0 0 14.99 3 0 0 7.5 3.37 0 0 7.49 3.37 0 0 7.5 3.37 0 0 7.49 6.75 0 0 7.5 3.37 0 0 7.49 6.75 0 0 7.5 9.74 0 0 7.49 10.12 0 0 7.5 10.12 0 0 7.49 13.11 0 0 7.5 10.12 0 0 7.49 9.74 0 0 7.5 13.49 0 0 7.49 13.49 0 0 7.5 9.74 0 0 7.49 13.49 0 0 7.5 13.12 0 0 7.49 16.86 0 0 7.5 13.12 0 0 7.5 13.49 0 0 7.49 16.49 0 0 7.49 16.86 0 0 7.5 16.49 0 0 7.49 13.49 0 0 7.5 16.49 0 0 7.49 16.86 0 0 7.5 13.11 0 0 7.49 13.49 0 0 7.5 16.49 0 0 7.49 10.12 0 0 7.5 13.11 0 0 7.49 10.12 0 0 7.5 6.74 0 0 7.49 6.75 0 0 7.5 6.37 0 0 7.49 10.12 0 0 7.5 3.37 0 0 7.49 6.74 0 0 7.5 6.37 0 0 7.49 6.75 0 0 7.5 6.74 0 0 7.49 3.37 0 0 7.5 3.37 0 0 14.99 -3.37 0 0 7.5 -10.12 0 0 7.49 -9.74 0 0 7.49 -10.12 0 0 7.5 -10.12 0 0 7.5 -9.74 0 0 7.49 -10.12 0 0 7.49 -10.12 0 0 7.5 -9.74 0 0 7.5 -10.12 0 0 7.49 -13.49 0 0 7.49 -9.74 0 0 7.5 -10.12 0 0 7.49 -10.12 0 0 7.5 -9.74 0 0 7.49 -10.12 0 0 7.5 -10.12 0 0 7.49 -9.74 0 0 7.5 -10.12 0 0 7.49 -10.12 0 0 7.5 -9.74 0 0 7.49 -10.12 0 0 7.5 -10.12 0 0 7.5 -9.74 0 0 7.49 -10.12 0 0 7.49 -10.11 0 0 7.5 -9.75 0 0 7.5 -6.74 0 0 7.49 -6.75 0 0 7.49 -6.75 0 0 7.5 -3 0 0 7.5 -3.37 0 0 7.49 -3.37 0 0 7.49 -6.74 0 0 7.5 -3.37 0 0 14.99 -3.37 0 0 14.99 -3.37 0 0 22.48 3.37 0 0 14.99 3.37 0 0 14.98 6.75 0 0 7.5 3.37 0 0 7.5 6.75 0 0 7.49 13.11 0 0 7.49 66.7 0 0 -7.49 26.6 0 0 -7.49 16.48 0 0 -7.5 16.86 0 0 -7.5 13.11 0 0 -7.49 10.12 0 0 -7.49 10.12 0 0 -7.5 9.74 0 0 -7.5 10.12 0 0 -7.49 6.74 0 0 -7.49 9.74 0 0 -7.5 6.75 0 0 -7.5 6.75 0 0 -7.49 6.74 0 0 -7.49 6.75 0 0 -7.5 6.37 0 0 -7.5 6.75 0 0 -7.49 3.37 0 0 -7.49 6.75 0 0 -7.5 6.75 0 0 -7.5 3 0 0 -7.49 6.75 0 0 -7.49 6.74 0 0 -7.5 3.37 0 0 -7.5 3.37 0 0 -7.49 3.37 0 0 -7.49 6.75 0 0 -7.5 3 0 0 -14.99 3.37 0 0 -7.5 3.37 0 0 -7.49 3.37 0 0 -14.99 3.37 0 0 -7.5 3.37 0 0 -14.99 3.37 0 0 -22.48 3.37 0 0 -29.98 3.37 0 0 -7.49 3 0 0 -7.5 3.37 0 0 -7.5 10.12 0 0 -7.49 10.12 0 0 -7.49 6.37 0 0 -7.5 6.75 0 0 -7.5 10.12 0 0 -7.49 10.12 0 0 -7.5 6.37 0 0 -7.49 10.12 0 0 -7.5 6.75 0 0 -7.49 9.74 0 0 -7.5 10.11 0 0 29.98 3.37 0 0 14.99 3.37 0 0 7.5 3.37 0 0 7.5 3.37 0 0 7.49 3.37 0 0 7.49 23.23 0 0 -7.49 6.75 0 0 -7.49 6.37 0 0 -7.5 3.37 0 0 -7.5 3.37 0 0 -7.49 3.37 0 0 -7.5 3.37 0 0 -7.49 3.37 0 0 -7.5 3.37 0 0 -7.49 3.37 0 0 -7.5 3 0 0 -7.49 3.37 0 0 -7.5 6.74 0 0 -7.49 13.49 0 0 7.49 63.32 0 0 -7.49 9.74 0 0 22.48 -3.37 0 0 29.98 3.37 0 0 14.99 3.37 0 0 7.5 3.37 0 0 7.5 6.74 0 0 7.49 9.74 0 0 -7.49 10.12 0 0 -7.5 6.74 0 0 -7.5 6.75 0 0 -7.49 6.37 0 0 -7.5 6.75 0 0 -7.49 6.75 0 0 -7.5 3.37 0 0 -7.49 6.75 0 0 -7.5 16.49 0 0 7.5 6.74 0 0 7.49 3.37 0 0 7.5 6.75 0 0 7.49 3 0 0 7.5 6.75 0 0 7.49 6.75 0 0 7.5 10.12 0 0 7.5 16.49 0 0 7.49 19.86 0 0 -7.49 20.24 0 0 -7.5 9.74 0 0 -7.5 6.75 0 0 -7.49 10.12 0 0 -7.5 6.75 0 0 -7.49 6.37 0 0 -7.5 6.74 0 0 -7.49 10.12 0 0 -7.5 6.75 0 0 -7.49 6.37 0 0 -7.5 6.74 0 0 -7.49 10.12 0 0 -7.5 6.75 0 0 7.5 3.37 0 0 14.99 3 0 0 7.49 3.37 0 0 7.5 6.74 0 0 7.49 10.12 0 0 7.5 6.74 0 0 -7.5 13.11 0 0 -7.49 6.75 0 0 -7.5 10.12 0 0 -7.49 6.37 0 0 -7.5 6.75 0 0 -7.49 6.74 0 0 -7.5 6.75 0 0 -7.49 3.37 0 0 -7.5 6.37 0 0 -7.49 3.37 0 0 -7.5 6.75 0 0 14.99 -3.37 0 0 22.48 -3.37 0 0 29.98 3.37 0 0 14.99 3.37 0 0 7.49 3.37 0 0 7.5 3.37 0 0 7.49 6.37 0 0 7.5 20.23 0 0 -7.5 9.74 0 0 -7.49 6.75 0 0 -7.5 6.75 0 0 -7.49 10.11 0 0 -7.5 6.37 0 0 -7.49 6.75 0 0 -7.5 6.75 0 0 -7.49 6.74 0 0 -7.5 9.74 0 0 -7.49 6.75 0 0 -7.5 6.75 0 0 -7.49 6.74 0 0 -7.5 6.75 0 0 -7.49 9.74 0 0 -7.5 6.75 0 0 -7.49 6.75 0 0 -7.5 6.74 0 0 59.95 3 0 0 7.5 3.37 0 0 7.49 26.6 0 0 -7.49 6.74 0 0 -7.5 10.12 0 0 -7.49 6.75 0 0 -7.5 6.37 0 0 -7.49 6.74 0 0 -7.5 6.75 0 0 -7.49 6.74 0 0 -7.5 6.75 0 0 -7.49 6.37 0 0 -7.5 6.74 0 0 -7.49 6.75 0 0 -7.5 6.75 0 0 -7.49 6.74 0 0 7.49 -3.37 0 0 14.99 -3.37 0 0 14.99 -3.37 0 0 14.99 -3.37 0 0 14.99 -3.37 0 0 7.5 -3.37 0 0 14.99 -3.37 0 0 7.49 -3.37 0 0 7.5 -3 0 0 14.99 -6.74 0 0 7.49 -3.37 0 0 7.5 -3.37 0 0 7.49 -6.75 0 0 7.5 -3.37 0 0 7.5 -3.37 0 0 7.49 -6.37 0 0 7.49 -3.37 0 0 7.5 -6.75 0 0 7.5 -3.37 0 0 7.49 -3.37 0 0 7.49 -6.74 0 0 7.5 -3.37 0 0 7.5 -6.37 0 0 7.49 -3.37 0 0 7.49 -3.37 0 0 7.5 -6.75 0 0 7.49 -3.37 0 0 7.5 -3.37 0 0 7.49 -6.37 0 0 7.5 -3.37 0 0 7.49 -3.37 0 0 7.5 -6.75 0 0 7.49 -3.37 0 0 7.5 -3.37 0 0 7.49 -6.75 0 0 7.5 -3 0 0 7.5 -3.37 0 0 7.49 -3.37 0 0 7.49 -3.37 0 0 7.5 -6.75 0 0 7.5 -3.37 0 0 7.49 -3.37 0 0 7.49 -3.37 0 0 7.5 -3 0 0 14.99 -3.37 0 0 7.49 -3.37 0 0 7.5 -3.37 0 0 7.5 -3.37 0 0 14.98 -3.37 0 0 7.5 -3.37 0 0 14.99 -3.37 0 0 7.49 -3.37 0 0 14.99 -3 0 0 7.49 -3.37 0 0 14.99 -3.37 0 0 7.5 -3.37 0 0 29.98 3.37 0 0 14.99 3.37 0 0 7.49 6.37 0 0 7.49 16.86 0 0 -7.49 6.74 0 0 -7.49 9.75 0 0 -7.5 6.74 0 0 -7.49 6.75 0 0 -7.5 6.74 0 0 -7.5 6.37 0 0 -7.49 3.37 0 0 -7.49 6.74 0 0 -7.5 3.37 0 0 -7.5 3.37 0 0 -7.49 6.75 0 0 -7.49 3.37 0 0 -7.5 3 0 0 -7.5 3.37 0 0 -7.49 6.74 0 0 -7.49 3.37 0 0 -7.5 3.37 0 0 -7.5 3.37 0 0 -7.49 3.37 0 0 -7.49 3.37 0 0 -7.5 3 0 0 -7.5 3.37 0 0 -7.49 3.37 0 0 -7.49 3.37 0 0 -7.5 3.37 0 0 -7.5 3.37 0 0 -7.49 3.37 0 0 -14.99 3.37 0 0 -7.5 3.37 0 0 -7.49 3 0 0 -7.49 3.37 0 0 -14.99 3.37 0 0 -7.49 3.37 0 0 -7.5 3.37 0 0 -7.49 3.37 0 0 -14.99 3.37 0 0 -7.5 3.37 0 0 -14.99 3.37 0 0 -7.49 3.37 0 0 -14.99 3 0 0 -7.49 3.37 0 0 -14.99 3.37 0 0 -7.49 3.37 0 0 -14.99 3.37 0 0 -14.99 3.37 0 0 -7.49 3.37 0 0 -7.5 3.37 0 0 -7.5 3.37 0 0 -7.49 6.37 0 0 -7.5 6.75 0 0 -7.49 6.74 0 0 -7.5 6.75 0 0 -7.49 3.37 0 0 -7.5 6.37 0 0 -7.49 6.75 0 0 -7.5 6.74 0 0 -7.49 6.75 0 0 -7.5 3.37 0 0 -7.49 6.37 0 0 -7.5 6.75 0 0 -7.49 6.74 0 0 -7.5 6.75 0 0 -7.49 6.37 0 0 -7.5 6.75 0 0 -7.49 3.37 0 0 -7.5 6.74 0 0 -7.49 6.75 0 0 -7.5 6.37 0 0 -7.49 6.75 0 0 -7.5 6.74 0 0 -7.49 3.37 0 0 -7.49 6.75 0 0 -14.99 3.37 0 0 -14.99 -3.37 0 0 -7.49 -3.37 0 0 -7.5 -3.37 0 0 -7.49 -16.86 0 0 7.49 -3 0 0 7.5 -6.74 0 0 7.49 -6.75 0 0 7.5 -3.37 0 0 7.49 -6.75 0 0 7.5 -6.37 0 0 7.5 -6.74 0 0 7.49 -3.37 0 0 7.49 -6.74 0 0 7.5 -6.75 0 0 7.49 -6.37 0 0 7.5 -3.37 0 0 7.49 -6.75 0 0 7.5 -6.74 0 0 7.49 -6.75 0 0 7.5 -3.37 0 0 7.49 -6.37 0 0 7.5 -6.75 0 0 7.49 -3.37 0 0 -22.48 3.37 0 0 -14.99 3.37 0 0 -22.48 3.37 0 0 -29.97 -3.37 0 0 -14.99 -3.37 0 0 -7.49 -19.86 0 0 7.49 -6.74 0 0 7.5 -6.75 0 0 7.5 -6.75 0 0 7.49 -6.74 0 0 7.49 -9.74 0 0 7.5 -6.75 0 0 7.49 -6.75 0 0 7.5 -6.74 0 0 7.49 -6.37 0 0 7.5 -6.75 0 0 7.49 -6.74 0 0 7.5 -6.75 0 0 7.49 -9.74 0 0 -22.48 3 0 0 -22.48 3.37 0 0 -22.48 3.37 0 0 -14.99 -3.37 0 0 -14.99 -3.37 0 0 -7.5 -3 0 0 -7.49 -20.23 0 0 7.49 -6.75 0 0 7.5 -6.37 0 0 7.49 -6.75 0 0 7.5 -6.75 0 0 7.5 -6.74 0 0 7.49 -6.37 0 0 7.49 -6.75 0 0 7.5 -6.74 0 0 7.49 -6.75 0 0 7.5 -6.75 0 0 7.49 -6.37 0 0 7.5 -6.74 0 0 7.49 -6.75 0 0 7.5 -6.74 0 0 7.49 -6.37 0 0 7.5 -6.75 0 0 7.49 -6.74 0 0 7.5 -6.75 0 0 7.49 -6.75 0 0 7.5 -19.86 0 0 -7.5 3.37 0 0 -14.99 3.37 0 0 -14.99 3.37 0 0 -7.49 3.37 0 0 -14.99 3.37 0 0 -7.5 3 0 0 -14.99 3.37 0 0 -7.49 3.37 0 0 -14.99 3.37 0 0 -44.96 -3.37 0 0 -7.5 -16.49 0 0 7.5 -13.49 0 0 7.49 -3.37 0 0 -7.49 -13.12 0 0 -7.5 -46.84 0 0 7.5 -13.12 0 0 7.49 -10.12 0 0 7.5 -6.74 0 0 7.49 -6.37 0 0 7.5 -6.75 0 0 7.5 -6.75 0 0 7.49 -3.37 0 0 7.49 -6.74 0 0 7.5 -6.37 0 0 7.49 -3.37 0 0 7.5 -6.75 0 0 7.49 -6.75 0 0 7.5 -3.37 0 0 7.49 -6.37 0 0 7.5 -6.74 0 0 7.49 -6.75 0 0 7.5 -6.75 0 0 7.49 -6.74 0 0 7.5 -6.37 0 0 7.49 -10.12 0 0 7.5 -10.12 0 0 7.49 -13.11 0 0 7.5 -59.96 0 0 -7.5 -6.74 0 0 -7.49 -3.37 0 0 -7.5 -3.37 0 0 -7.49 6.75 0 0 -7.5 6.74 0 0 -7.49 6.75 0 0 -7.5 6.37 0 0 -7.49 6.75 0 0 -7.5 3.37 0 0 -7.49 6.75 0 0 -7.5 6.74 0 0 -7.49 6.37 0 0 -7.5 3.37 0 0 -7.49 6.75 0 0 -7.5 3.37 0 0 -14.98 3.37 0 0 -37.47 -3.37 0 0 -7.5 -6.74 0 0 -7.49 -10.12 0 0 -7.5 -9.74 0 0 7.5 -6.75 0 0 7.49 -6.75 0 0 7.5 -6.75 0 0 7.49 -6.37 0 0 7.5 -6.75 0 0 7.49 -6.74 0 0 7.5 -6.75 0 0 7.5 -6.37 0 0 7.49 -6.75 0 0 7.49 -6.74 0 0 7.5 -6.75 0 0 7.49 -6.75 0 0 7.5 -3 0 0 7.49 -6.75 0 0 7.5 -6.74 0 0 7.49 -3.37 0 0 7.5 -6.75 0 0 7.49 -3.37 0 0 7.5 -9.74 0 0 -7.5 3.37 0 0 -7.49 3.37 0 0 -7.5 3 0 0 -7.49 3.37 0 0 -7.5 3.37 0 0 -7.49 3.37 0 0 -7.5 3.37 0 0 -7.49 3.37 0 0 -7.5 3.37 0 0 -7.49 3.37 0 0 -14.99 3.37 0 0 -7.5 3 0 0 -7.49 3.37 0 0 -7.5 3.37 0 0 -7.49 3.37 0 0 -7.5 3.37 0 0 -7.49 3.37 0 0 -7.5 3.37 0 0 -7.49 3.37 0 0 -7.5 3.37 0 0 -7.49 3 0 0 -7.5 3.37 0 0 -7.49 3.37 0 0 -7.5 3.37 0 0 -7.49 3.37 0 0 -7.5 3.37 0 0 -7.49 3.37 0 0 -7.5 3.37 0 0 -7.49 3.37 0 0 -7.5 3 0 0 -7.49 3.37 0 0 -7.5 3.37 0 0 -7.49 3.37 0 0 -14.99 3.37 0 0 -7.5 3.37 0 0 -7.49 3.37 0 0 -7.5 3.37 0 0 -7.49 3.37 0 0 -7.5 3 0 0 -7.49 3.37 0 0 -7.5 3.37 0 0 -7.49 3.37 0 0 -7.5 3.37 0 0 -7.49 3.37 0 0 -7.5 3.37 0 0 -7.49 3.37 0 0 -7.5 3.37 0 0 -7.49 3 0 0 -7.5 3.37 0 0 -14.99 3.37 0 0 -7.49 3.37 0 0 -7.5 3.37 0 0 -7.49 3.37 0 0 -7.5 3.37 0 0 -7.49 3.37 0 0 -7.5 3.37 0 0 -14.99 3 0 0 -7.49 3.37 0 0 -14.99 3.37 0 0 -14.99 3.37 0 0 -7.5 3.37 0 0 -14.99 3.37 0 0 -22.48 3.37 0 0 -22.48 3.37 0 0 -22.48 3.37 0 0 -44.96 3 0 0 -7.5 -3 0 0 -29.98 -3.37 0 0 -7.49 -3.37 0 0 -7.5 -6.75 0 0 -7.49 -13.49 0 0 7.49 -6.37 0 0 7.5 -3.37 0 0 7.49 -3.37 0 0 7.5 -6.74 0 0 7.49 -3.37 0 0 7.5 -3.37 0 0 7.49 -3.37 0 0 7.5 -3 0 0 7.49 -3.37 0 0 7.5 -3.37 0 0 7.49 -3.37 0 0 7.5 -3.37 0 0 7.49 -3.37 0 0 14.99 -3.37 0 0 7.5 -3.37 0 0 7.49 -3.37 0 0 7.5 -3 0 0 14.99 -3.37 0 0 7.49 -3.37 0 0 7.5 -3.37 0 0 7.49 -3.37 0 0 14.99 -3.37 0 0 7.5 -3.37 0 0 7.49 -3.37 0 0 7.5 -3.37 0 0 14.99 -3 0 0 7.49 -3.37 0 0 7.5 -3.37 0 0 14.99 -3.37 0 0 7.49 -3.37 0 0 7.5 -3.37 0 0 14.99 -3.37 0 0 7.49 -3.37 0 0 14.99 -3.37 0 0 7.5 -3 0 0 7.49 -3.37 0 0 14.99 -3.37 0 0 7.5 -3.37 0 0 14.99 -3.37 0 0 7.49 -3.37 0 0 14.99 -3.37 0 0 7.5 -3.37 0 0 14.99 -3.37 0 0 7.49 -3 0 0 14.99 -3.37 0 0 7.5 -3.37 0 0 14.99 -3.37 0 0 7.49 -3.37 0 0 14.99 -3.37 0 0 7.5 -3.37 0 0 14.99 -3.37 0 0 14.99 -3.37 0 0 7.49 -3 0 0 14.99 -3.37 0 0 14.99 -3.37 0 0 7.5 -3.37 0 0 14.99 -3.37 0 0 7.49 -3.37 0 0 14.99 -3.37 0 0 7.5 -3.37 0 0 7.5 -3.37 0 0 7.49 -3 0 0 7.49 -3.37 0 0 7.5 -3.37 0 0 7.49 -6.74 0 0 7.5 -6.75 0 0 7.49 -13.11 0 0 7.5 -10.12 0 0 7.49 -16.49 0 0 7.5 -16.86 0 0 7.49 -10.11 0 0 -7.49 -9.75 0 0 -7.5 -3.37 0 0 -7.49 -3.37 0 0 -14.99 -3.37 0 0 -14.99 -3.37 0 0 -14.99 -3.37 0 0 -7.49 -3.37 0 0 -7.5 -9.75 0 0 7.5 -3.37 0 0 7.49 -6.75 0 0 7.49 -6.74 0 0 -7.49 -9.74 0 0 7.49 -6.75 0 0 7.5 -10.12 0 0 7.49 -6.74 0 0 7.5 -6.37 0 0 7.49 -6.75 0 0 7.5 -6.75 0 0 7.49 -10.11 0 0 7.5 -6.37 0 0 7.49 -6.75 0 0 7.5 -6.75 0 0 7.49 -6.74 0 0 7.5 -9.74 0 0 7.49 -6.75 0 0 7.5 -6.75 0 0 7.49 -6.74 0 0 7.5 -9.74 0 0 7.49 -6.75 0 0 7.5 -6.75 0 0 7.49 -10.12 0 0 7.5 -9.74 0 0 -7.5 -3.37 0 0 -7.49 -3.37 0 0 -7.5 -3.37 0 0 -7.49 -3.37 0 0 -7.5 -3.37 0 0 -7.49 -3.37 0 0 -7.5 -3 0 0 -7.49 -3.37 0 0 -7.5 -3.37 0 0 -7.49 -3.37 0 0 -7.5 -6.75 0 0 -7.49 -6.74 0 0 -7.5 -6.75 0 0 -7.49 -6.37 0 0 -7.5 -6.74 0 0 -7.49 -10.12 0 0 -7.5 -13.12 0 0 -7.49 -10.11 0 0 -7.5 -13.49 0 0 -7.49 -9.74 0 0 -7.49 -13.49 0 0 -7.5 -13.12 0 0 -7.5 -13.49 0 0 -7.49 -13.11 0 0 -7.5 -13.49 0 0 -7.49 -13.11 0 0 -7.5 -13.49 0 0 -7.49 -16.49 0 0 -7.5 -13.49 0 0 -7.49 -16.49 0 0 -7.5 -13.49 0 0 -7.49 -16.49 0 0 -7.5 -16.86 0 0 -7.49 -16.48 0 0 -7.5 -16.86 0 0 -7.49 -16.49 0 0 -7.5 -13.49 0 0 -7.49 -16.49 0 0 -7.5 -10.12 0 0 -7.49 -10.12 0 0 -7.5 -6.37 0 0 -7.49 -6.74 0 0 -7.5 -6.75 0 0 -7.49 -6.74 0 0 -7.5 -3.37 0 0 -7.49 -3 0 0 -7.5 -3.37 0 0 -29.98 3.37 0 0 -14.99 3 0 0 -7.49 3.37 0 0 -7.5 6.74 0 0 -7.49 3.37 0 0 -7.5 3.37 0 0 -7.49 6.74 0 0 -7.5 6.37 0 0 -7.49 6.75 0 0 -7.5 6.75 0 0 -7.49 6.74 0 0 -7.5 6.75 0 0 -7.49 6.37 0 0 -7.5 6.75 0 0 -7.49 6.75 0 0 -7.5 10.12 0 0 -7.49 6.37 0 0 -7.5 10.12 0 0 -7.49 10.12 0 0 -7.5 9.74 0 0 -7.49 10.12 0 0 -7.5 10.12 0 0 -7.49 9.74 0 0 -7.5 13.49 0 0 -7.49 13.11 0 0 -7.5 13.49 0 0 -7.49 13.49 0 0 -7.5 13.11 0 0 -7.49 13.49 0 0 -7.5 13.11 0 0 -7.49 16.86 0 0 -7.5 13.11 0 0 -7.49 16.86 0 0 -7.5 13.11 0 0 -7.49 16.86 0 0 -7.5 19.86 0 0 -7.49 16.48 0 0 -7.5 20.23 0 0 -7.49 23.23 0 0 -7.5 26.6 0 0 -7.49 33.35 0 0 -7.5 36.72 0 0 -7.49 39.72 0 0 -7.5 20.23 0 0 7.5 13.11 0 0 7.49 -3.37 0 0 7.5 -3 0 0 14.99 -3.37 0 0 29.98 3.37 0 0 7.49 3 0 0 7.5 16.86 0 0 -7.5 3.37 0 0 -7.49 3.37 0 0 -7.5 3.37 0 0 -7.49 3 0 0 -14.99 3.37 0 0 -14.99 3.37 0 0 -29.98 -3.37 0 0 -14.99 -3.37 0 0 -7.5 -3 0 0 -7.49 -6.75 0 0 -7.5 -6.74 0 0 -7.49 -26.6 0 0 -7.5 -73.44 0 0 7.5 -39.72 0 0 7.49 -26.6 0 0 7.5 -13.49 0 0 -82.44 3.37 0 0 -67.44 -6.75 0 0 7.49 -3.37 0 0 7.5 -3.37 0 0 7.49 -3.37 0 0 14.99 -3.37 0 0 7.5 -3 0 0 7.49 -3.37 0 0 -7.49 -3.37 0 0 -14.99 -3.37 0 0 -14.98 -3.37 0 0 -14.99 -3.37 0 0 -14.99 -3.37 0 0 -7.5 -3.37 0 0 -14.99 -3.37 0 0 -7.49 -3 0 0 7.49 -3.37 0 0 7.5 -3.37 0 0 14.99 -3.37 0 0 7.49 -3.37 0 0 14.99 -3.37 0 0 7.5 -3.37 0 0 14.98 -3.37 0 0 7.5 -3.37 0 0 14.99 -3 0 0 7.5 -3.37 0 0 -7.5 -3.37 0 0 -22.48 -3.37 0 0 -14.98 -6.75 0 0 -14.99 -3.37 0 0 -22.48 -3.37 0 0 -7.49 -3.37 0 0 7.49 -3 0 0 14.99 -3.37 0 0 14.99 -3.37 0 0 14.99 -3.37 0 0 14.99 -3.37 0 0 14.99 -3.37 0 0 7.5 -3.37 0 0 7.49 -3.37 0 0 -7.49 -3 0 0 -7.5 -3.37 0 0 -7.49 -3.37 0 0 -7.5 -3.37 0 0 -7.5 -3.37 0 0 -7.49 -3.37 0 0 -7.49 -6.74 0z"/>
  <polygon class="fil0" points="372.83,22.48 369.46,22.48 369.46,82.43 366.09,82.43 366.09,134.89 363.09,134.89 363.09,164.87 359.71,164.87 359.71,179.86 366.09,179.86 366.09,157.38 369.46,157.38 369.46,127.4 372.83,127.4 372.83,82.43 376.2,82.43 376.2,22.48 379.58,22.48 379.58,0 372.83,0 "/>
  <polygon class="fil0" points="472.88,284.77 453.02,284.77 453.02,292.27 449.64,292.27 449.64,299.76 472.88,299.76 472.88,292.27 516.34,292.27 516.34,284.77 512.97,284.77 512.97,277.28 472.88,277.28 "/>
  <polygon class="fil0" points="466.13,89.93 462.76,89.93 462.76,97.42 459.38,97.42 459.38,104.92 456.39,104.92 456.39,112.41 449.64,112.41 449.64,119.9 446.27,119.9 446.27,127.4 442.9,127.4 442.9,134.89 439.53,134.89 439.53,149.88 436.15,149.88 436.15,157.38 432.78,157.38 432.78,164.87 429.41,164.87 429.41,172.36 426.04,172.36 426.04,179.86 423.04,179.86 423.04,202.34 426.04,202.34 426.04,194.85 429.41,194.85 429.41,187.35 432.78,187.35 432.78,172.36 436.15,172.36 436.15,164.87 439.53,164.87 439.53,157.38 442.9,157.38 442.9,149.88 446.27,149.88 446.27,142.39 449.64,142.39 449.64,134.89 453.02,134.89 453.02,127.4 456.39,127.4 456.39,119.9 459.38,119.9 459.38,112.41 462.76,112.41 462.76,104.92 466.13,104.92 466.13,97.42 472.88,97.42 472.88,82.43 466.13,82.43 "/>
  <polygon class="fil0" points="279.53,112.41 286.27,112.41 286.27,119.9 289.64,119.9 289.64,134.89 293.02,134.89 293.02,142.39 296.39,142.39 296.39,157.38 299.76,157.38 299.76,172.36 303.14,172.36 303.14,187.35 306.51,187.35 306.51,202.34 309.5,202.34 309.5,209.83 316.25,209.83 316.25,202.34 312.88,202.34 312.88,187.35 309.5,187.35 309.5,164.87 306.51,164.87 306.51,157.38 303.14,157.38 303.14,142.39 299.76,142.39 299.76,127.4 296.39,127.4 296.39,119.9 293.02,119.9 293.02,112.41 289.64,112.41 289.64,104.92 286.27,104.92 286.27,97.42 279.53,97.42 "/>
  <polygon class="fil0" points="492.74,179.86 479.62,179.86 479.62,187.35 472.88,187.35 472.88,194.85 466.13,194.85 466.13,202.34 459.38,202.34 459.38,209.83 456.39,209.83 456.39,217.33 453.02,217.33 453.02,224.82 449.64,224.82 449.64,232.32 456.39,232.32 456.39,224.82 462.76,224.82 462.76,217.33 466.13,217.33 466.13,209.83 472.88,209.83 472.88,202.34 479.62,202.34 479.62,194.85 489.36,194.85 489.36,187.35 502.85,187.35 502.85,179.86 499.48,179.86 499.48,172.36 492.74,172.36 "/>
  <polygon class="fil0" points="233.07,277.28 219.58,277.28 219.58,292.27 229.69,292.27 229.69,284.77 266.41,284.77 266.41,269.79 233.07,269.79 "/>
  <polygon class="fil0" points="322.99,104.92 326.37,104.92 326.37,119.9 329.74,119.9 329.74,142.39 333.11,142.39 333.11,164.87 336.11,164.87 336.11,172.36 339.48,172.36 339.48,142.39 336.11,142.39 336.11,119.9 333.11,119.9 333.11,104.92 329.74,104.92 329.74,89.93 322.99,89.93 "/>
  <polygon class="fil0" points="416.3,82.43 412.92,82.43 412.92,97.42 409.55,97.42 409.55,104.92 406.18,104.92 406.18,119.9 402.81,119.9 402.81,134.89 399.43,134.89 399.43,149.88 406.18,149.88 406.18,134.89 409.55,134.89 409.55,119.9 412.92,119.9 412.92,104.92 416.3,104.92 416.3,97.42 419.67,97.42 419.67,82.43 423.04,82.43 423.04,74.94 416.3,74.94 "/>
  <polygon class="fil0" points="282.9,232.32 282.9,217.33 279.53,217.33 279.53,209.83 276.53,209.83 276.53,202.34 273.16,202.34 273.16,194.85 266.41,194.85 266.41,187.35 259.67,187.35 259.67,194.85 263.04,194.85 263.04,202.34 266.41,202.34 266.41,209.83 269.79,209.83 269.79,217.33 273.16,217.33 273.16,224.82 276.53,224.82 276.53,232.32 "/>
 </g>
</svg>
